# xmcd
#
# Track frame offsets: 
#        150
#        12787
#        29032
#        45547
#        58580
#        70735
#        83410
#        98692
#        114297
#        128935
#        142672
#        158310
#        172297
#        184452
#        197922
#        209685
#        230905
#        247957
#
# Disc length: 3542 seconds
#
# Revision: 2
# Processed by: cddbd v1.5.1PL2 Copyright (c) Steve Scherf et al.
# Submitted via: ExactAudioCopy v0.95a5
#
DISCID=f50dd412
DTITLE=Various Artist - Kickin' Country
DYEAR=1900
DGENRE=
TTITLE0=Joe Diffie/Third Rock From The Sun
TTITLE1=Wade Hayes/Old Enough To Know Better
TTITLE2=Mary Chapin Carpenter/Shut Up And Kiss Me
TTITLE3=Collin Raye/My Kind Of Girl
TTITLE4=Ken Mellons/Jukebox Junkie
TTITLE5=Patty Loveless/I Try To Think About Elvis
TTITLE6=James House/A Real Good Way To End Up Lonesome
TTITLE7=Kathy Mattea/Walking Away A Winner
TTITLE8=The Mavericks/There Goes My Heart
TTITLE9=Doug Stone/Addicted To The Dollar
TTITLE10=Lisa Brokop/Take That
TTITLE11=Rick Trevino/Doctor Time
TTITLE12=Prescott and Brown/There Ain't Much You Can Do About Love
TTITLE13=John Anderson/Money In The Bank
TTITLE14=Tanya Tucker/It's A Little Too Late
TTITLE15=The Blue Shadows/Deliver Me
TTITLE16=Marty Stuart/Love And Luck
TTITLE17=Rhodes and Marshall/Cool New Country
EXTD=
EXTT0=
EXTT1=
EXTT2=
EXTT3=
EXTT4=
EXTT5=
EXTT6=
EXTT7=
EXTT8=
EXTT9=
EXTT10=
EXTT11=
EXTT12=
EXTT13=
EXTT14=
EXTT15=
EXTT16=
EXTT17=
PLAYORDER=
